# xmcd
#
# Track frame offsets:
#	150
#	18293
#	35601
#	48232
#	67985
#	86962
#	107121
#	124167
#	141851
#	159927
#	177766
#	197599
#	215861
#
# Disc length: 3144 seconds
#
# Revision: 1
# Processed by: cddbd v1.5PL3 Copyright (c) Steve Scherf et al.
# Submitted via: EasyCDDAExtractor 5.0.6
#
DISCID=b50c460d
DTITLE=Ελευθερία Αρβανιτάκη - Τρια Τραγούδια
DYEAR=2004
DGENRE=
TTITLE0=Πάω να πιάσω ουρανό
TTITLE1=Οι φίλοι μου δε σ'αγαπούν
TTITLE2=Τέλος δεν υπάρχει εδώ
TTITLE3=Στα νερά να περπατήσω
TTITLE4=Αυτό το φιλί
TTITLE5=Ιστορία παλιά (La femme sans haine)
TTITLE6=Καρφωτή
TTITLE7=Το ποτήρι σου ψηλά
TTITLE8=Λόγια που φύλαγα
TTITLE9=Για των ματιών σου το χρώμα
TTITLE10=Φωτιά και χιόνι
TTITLE11=Κάτω στο μεγάλο ύπνο
TTITLE12=Εγώ το μέλλον νοσταλγώ
EXTD=
EXTT0=
EXTT1=
EXTT2=
EXTT3=
EXTT4=
EXTT5=
EXTT6=
EXTT7=
EXTT8=
EXTT9=
EXTT10=
EXTT11=
EXTT12=
PLAYORDER=
